<svg xmlns="http://www.w3.org/2000/svg" version="1.1" x="0px" y="0px" viewBox="0 0 98 122.5"
     style="enable-background:new 0 0 98 98;" xml:space="preserve"><path d="M88.767,10.985l-21.315,0l1.645-2.326c0.641-0.906,0.723-2.08,0.214-3.064C68.801,4.612,67.796,4,66.686,4H56.604  c-1.11,0-2.115,0.611-2.624,1.595c-0.509,0.984-0.428,2.158,0.213,3.064l1.645,2.326l-21.315,0c-2.558,0-4.64,2.081-4.64,4.64V46.63  c-9.324,0.723-16.691,8.541-16.691,18.047c0,6.347,3.39,12.309,8.848,15.561c0.63,0.375,0.963,0.962,0.963,1.695v4.07  c0,1.546,0.952,2.872,2.3,3.427C25.423,91.97,27.525,94,30.094,94h2.4c2.568,0,4.671-2.029,4.791-4.569  c1.348-0.555,2.3-1.881,2.3-3.427v-0.926h49.182c2.558,0,4.64-2.082,4.64-4.64V15.625C93.407,13.066,91.326,10.985,88.767,10.985z   M85.323,69.267h-6.314c-0.78,0-1.412,0.632-1.412,1.412v6.314H44.549c1.247-1.349,2.282-2.878,3.071-4.528  c0.278-0.049,0.544-0.18,0.758-0.396l5.232-5.281c0.549-0.554,0.545-1.448-0.009-1.996c-0.554-0.549-1.448-0.545-1.996,0.009  l-2.391,2.413c0.12-0.835,0.183-1.682,0.183-2.537c0-1.886-0.29-3.706-0.828-5.417l5.042-5.089c0.549-0.554,0.545-1.448-0.009-1.996  c-0.554-0.549-1.448-0.545-1.996,0.009l-4.201,4.24c-1.996-3.88-5.353-6.95-9.437-8.575V19.068h11.767  c0.496,1.243,1.691,2.071,3.072,2.071h17.679c1.382,0,2.576-0.828,3.072-2.071h11.767V69.267z M83.327,72.091l-2.906,2.906v-2.906  H83.327z M58.565,13.808c0.528,0,1.011-0.294,1.254-0.763c0.243-0.469,0.204-1.033-0.101-1.464l-3.22-4.553  c-0.016-0.023-0.047-0.066-0.011-0.136c0.036-0.069,0.089-0.069,0.117-0.069h10.082c0.028,0,0.081,0,0.117,0.069  c0.036,0.069,0.005,0.112-0.011,0.135l-3.22,4.553c-0.305,0.431-0.344,0.996-0.101,1.464c0.242,0.469,0.726,0.763,1.254,0.763h7.129  l-0.891,4.122c-0.051,0.234-0.238,0.386-0.478,0.386H52.805c-0.24,0-0.428-0.151-0.478-0.386l-0.891-4.122H58.565z M34.522,13.808  h14.025l0.527,2.437h-12.52c-0.78,0-1.412,0.632-1.412,1.412v29.332c-0.794-0.173-1.608-0.294-2.437-0.358V15.625  C32.706,14.623,33.521,13.808,34.522,13.808z M23.485,77.813c-4.607-2.745-7.47-7.779-7.47-13.136  c0-8.425,6.854-15.279,15.279-15.279c8.425,0,15.279,6.854,15.279,15.279c0,5.357-2.862,10.39-7.47,13.136  c-1.488,0.887-2.341,2.388-2.341,4.12v0.982h-2.131v-11.74c3.609-0.844,6.12-3.032,6.12-5.663c0-2.466-2.006-4.472-4.472-4.472  c-2.466,0-4.472,2.006-4.472,4.472v3.202c-0.338,0.014-0.689,0.014-1.027,0v-3.202c0-2.466-2.006-4.472-4.472-4.472  s-4.472,2.006-4.472,4.472c0,2.631,2.511,4.819,6.12,5.663v11.74h-2.131v-0.982C25.827,80.202,24.973,78.7,23.485,77.813z   M35.879,86.886h-9.17c-0.487,0-0.883-0.396-0.883-0.883v-0.265h10.935v0.265C36.762,86.49,36.366,86.886,35.879,86.886z   M27.957,68.25c-2.006-0.61-3.296-1.715-3.296-2.738c0-0.909,0.739-1.648,1.648-1.648c0.909,0,1.648,0.739,1.648,1.648V68.25z   M31.808,82.915h-1.027V71.54c0.34,0.011,0.687,0.011,1.027,0V82.915z M34.631,68.25v-2.738c0-0.909,0.739-1.648,1.648-1.648  c0.909,0,1.648,0.739,1.648,1.648C37.927,66.535,36.637,67.64,34.631,68.25z M32.494,91.176h-2.4c-0.912,0-1.68-0.624-1.905-1.467  h6.21C34.175,90.552,33.407,91.176,32.494,91.176z M90.584,80.437c0,1.002-0.815,1.817-1.816,1.817H39.585v-0.32  c0-0.733,0.333-1.319,0.963-1.695c0.227-0.135,0.45-0.277,0.67-0.422h37.791c0.374,0,0.733-0.149,0.998-0.414l7.726-7.726  c0.265-0.265,0.413-0.624,0.413-0.998V17.657c0-0.78-0.632-1.412-1.412-1.412h-12.52l0.527-2.437h14.025  c1.002,0,1.816,0.815,1.816,1.816V80.437z M80.244,65.669c0,0.78-0.632,1.412-1.412,1.412H59.156c-0.78,0-1.412-0.632-1.412-1.412  c0-0.78,0.632-1.412,1.412-1.412h19.676C79.612,64.257,80.244,64.889,80.244,65.669z M70.406,71.202c0,0.78-0.632,1.412-1.412,1.412  h-9.838c-0.78,0-1.412-0.632-1.412-1.412s0.632-1.412,1.412-1.412h9.838C69.774,69.79,70.406,70.422,70.406,71.202z M57.744,58.585  c0-0.78,0.632-1.412,1.412-1.412h13.095c0.78,0,1.412,0.632,1.412,1.412c0,0.78-0.632,1.412-1.412,1.412H59.156  C58.376,59.996,57.744,59.364,57.744,58.585z M80.244,53.052c0,0.78-0.632,1.412-1.412,1.412H59.156  c-0.78,0-1.412-0.632-1.412-1.412s0.632-1.412,1.412-1.412h19.676C79.612,51.64,80.244,52.272,80.244,53.052z M57.744,45.968  c0-0.78,0.632-1.412,1.412-1.412h13.095c0.78,0,1.412,0.632,1.412,1.412s-0.632,1.412-1.412,1.412H59.156  C58.376,47.379,57.744,46.747,57.744,45.968z M80.244,40.435c0,0.78-0.632,1.412-1.412,1.412H59.156  c-0.78,0-1.412-0.632-1.412-1.412c0-0.78,0.632-1.412,1.412-1.412h19.676C79.612,39.023,80.244,39.655,80.244,40.435z   M78.833,26.406c0.78,0,1.412,0.632,1.412,1.412s-0.632,1.412-1.412,1.412H59.156c-0.78,0-1.412-0.632-1.412-1.412  s0.632-1.412,1.412-1.412H78.833z M57.744,33.351c0-0.78,0.632-1.412,1.412-1.412h13.095c0.78,0,1.412,0.632,1.412,1.412  s-0.632,1.412-1.412,1.412H59.156C58.376,34.762,57.744,34.13,57.744,33.351z M53.6,39.558c0.554,0.549,0.558,1.443,0.009,1.996  l-5.232,5.281c-0.276,0.278-0.639,0.418-1.003,0.418c-0.356,0-0.711-0.133-0.985-0.401l-2.918-2.845  c-0.558-0.544-0.57-1.438-0.026-1.996c0.544-0.558,1.438-0.57,1.996-0.026l1.915,1.867l4.246-4.286  C52.153,39.013,53.047,39.009,53.6,39.558z M53.6,26.941c0.554,0.549,0.558,1.443,0.009,1.996l-5.232,5.281  c-0.276,0.278-0.639,0.418-1.003,0.418c-0.356,0-0.711-0.133-0.985-0.401l-2.918-2.845c-0.558-0.544-0.57-1.438-0.026-1.996  c0.544-0.558,1.438-0.57,1.996-0.026l1.915,1.867l4.246-4.286C52.153,26.396,53.047,26.392,53.6,26.941z M17.427,43.35  c-0.39-0.675-0.159-1.539,0.517-1.928c0.676-0.39,1.539-0.158,1.928,0.517l2.164,3.749c0.39,0.675,0.159,1.539-0.517,1.928  c-0.222,0.128-0.465,0.189-0.704,0.189c-0.488,0-0.962-0.253-1.224-0.706L17.427,43.35z M8.17,51.195  c0.39-0.675,1.253-0.907,1.929-0.517l3.749,2.164c0.675,0.39,0.907,1.253,0.517,1.928c-0.262,0.453-0.736,0.706-1.224,0.706  c-0.24,0-0.482-0.061-0.704-0.189l-3.749-2.164C8.012,52.734,7.78,51.87,8.17,51.195z M10.333,65.957H6.005  c-0.78,0-1.412-0.632-1.412-1.412c0-0.78,0.632-1.412,1.412-1.412h4.328c0.78,0,1.412,0.632,1.412,1.412  C11.745,65.325,11.113,65.957,10.333,65.957z M14.364,74.32c0.39,0.675,0.159,1.539-0.517,1.928l-3.749,2.164  c-0.222,0.128-0.465,0.189-0.704,0.189c-0.488,0-0.962-0.253-1.224-0.706c-0.39-0.675-0.159-1.539,0.517-1.928l3.749-2.164  C13.111,73.414,13.974,73.645,14.364,74.32z"/>
</svg>