<svg xmlns="http://www.w3.org/2000/svg" version="1.1" x="0px" y="0px" viewBox="0 0 128 160"
     fill="#2E4756"
     style="enable-background:new 0 0 128 128;" xml:space="preserve"><g><g><g><path d="M96.5,44.9v-6.8c0-1.5-1.2-2.8-2.8-2.8H43.7c-1.5,0-2.8,1.2-2.8,2.8v6.8H96.5z M56.8,39.9h3.8     c0.7,0,1.3,0.6,1.3,1.3c0,0.7-0.6,1.3-1.3,1.3h-3.8c-0.7,0-1.3-0.6-1.3-1.3C55.5,40.5,56.1,39.9,56.8,39.9z M48.1,39.9H52     c0.7,0,1.3,0.6,1.3,1.3c0,0.7-0.6,1.3-1.3,1.3h-3.8c-0.7,0-1.3-0.6-1.3-1.3C46.8,40.5,47.4,39.9,48.1,39.9z"/><path
        d="M40.9,47.5V81c0,1.5,1.2,2.8,2.8,2.8h50.1c1.5,0,2.8-1.2,2.8-2.8V47.5H40.9z M60.5,69.3     c0.5,0.5,0.5,1.3,0,1.8c-0.3,0.3-0.6,0.4-0.9,0.4s-0.7-0.1-0.9-0.4l-7.2-7.2l7.2-7.2c0.5-0.5,1.3-0.5,1.8,0     c0.5,0.5,0.5,1.3,0,1.8l-5.4,5.4L60.5,69.3z M72.7,55.7l-5.5,17.2c-0.2,0.6-0.7,0.9-1.2,0.9c-0.1,0-0.3,0-0.4-0.1     c-0.7-0.2-1.1-1-0.8-1.6l5.5-17.2c0.2-0.7,1-1.1,1.6-0.8C72.6,54.3,72.9,55,72.7,55.7z M78.8,71.1c-0.3,0.3-0.6,0.4-0.9,0.4     s-0.7-0.1-0.9-0.4c-0.5-0.5-0.5-1.3,0-1.8l5.4-5.4l-5.4-5.4c-0.5-0.5-0.5-1.3,0-1.8c0.5-0.5,1.3-0.5,1.8,0l7.2,7.2L78.8,71.1z"/></g><path
        d="M87.1,85v2.7c0,2.8-2.2,5-5,5H36.5c-2.8,0-5-2.2-5-5V56.5c0-2.8,2.2-5,5-5h2.9v30.2    c0,2.1,1.7,3.8,3.8,3.7L87.1,85z"/></g><path
        d="M64,121C32.6,121,7,95.4,7,64S32.6,7,64,7s57,25.6,57,57S95.4,121,64,121z M64,9.9   C34.2,9.9,9.9,34.2,9.9,64s24.3,54.1,54.1,54.1s54.1-24.3,54.1-54.1S93.8,9.9,64,9.9z"/></g>
</svg>