<svg xmlns="http://www.w3.org/2000/svg" viewBox="0 0 101 96.25" x="0px" y="0px" fill="#2E4756">
    <path fill-rule="evenodd" clip-rule="evenodd"
          d="M23.3438 22.8841C23.3438 22.5777 23.5521 22.312 23.8516 22.2518C24.5711 22.1073 25.9556 21.8724 27.3504 21.8724C29.1965 21.8724 30.5086 22.0977 31.1618 22.2428C31.4449 22.3056 31.6334 22.5603 31.6334 22.8511V29.4811C31.6334 29.6382 31.743 29.7735 31.8956 29.8083C34.1787 30.3283 36.3091 31.2513 38.2085 32.4987C38.3414 32.5859 38.5173 32.5692 38.6296 32.4566L43.5724 27.499C43.7884 27.2823 44.1231 27.2422 44.3772 27.4121C44.9879 27.8202 46.1325 28.6359 47.1188 29.6252C48.4242 30.9344 49.193 32.0244 49.5527 32.5902C49.7086 32.8354 49.6623 33.1492 49.4573 33.3548L44.3526 38.4748C44.2443 38.5835 44.2245 38.7523 44.3028 38.8845C45.4262 40.7822 46.2378 42.8874 46.6667 45.1291C46.697 45.2875 46.8344 45.4034 46.9952 45.4034L54.1064 45.4034C54.3963 45.4034 54.6502 45.5924 54.7129 45.8763C54.8575 46.5316 55.0822 47.8476 55.0822 49.6992C55.0822 51.0982 54.8479 52.4868 54.7039 53.2084C54.6439 53.5088 54.3789 53.7178 54.0735 53.7178H46.6561C46.5049 53.7178 46.3732 53.8205 46.3334 53.9668C45.8136 55.8802 45.0106 57.6765 43.9723 59.3076C43.8877 59.4406 43.9052 59.615 44.0164 59.7266L49.3169 65.043C49.5329 65.2596 49.5729 65.5953 49.4036 65.8502C48.9967 66.4627 48.1833 67.6107 47.197 68.5999C45.8917 69.9092 44.805 70.6804 44.2409 71.0412C43.9964 71.1975 43.6836 71.1511 43.4785 70.9454L38.0892 65.5399C37.9798 65.4302 37.8094 65.4112 37.6773 65.4919C35.9577 66.5433 34.0626 67.3344 32.0463 67.8107C31.8949 67.8465 31.7867 67.9812 31.7867 68.1372V75.4061C31.7867 75.7125 31.5783 75.9782 31.2789 76.0384C30.5593 76.1829 29.1749 76.4178 27.7801 76.4178C25.934 76.4178 24.6219 76.1925 23.9687 76.0474C23.6855 75.9846 23.4971 75.7299 23.4971 75.4391V68.17C23.4971 68.0131 23.3876 67.8778 23.235 67.8429C21.2657 67.3931 19.4101 66.6433 17.7186 65.6442C17.5869 65.5664 17.4192 65.5864 17.3111 65.6948L12.2166 70.8046C12.0006 71.0212 11.666 71.0614 11.4118 70.8915C10.8011 70.4834 9.65654 69.6676 8.67024 68.6784C7.36487 67.3691 6.59597 66.2792 6.23631 65.7133C6.08043 65.4681 6.12672 65.1544 6.33175 64.9487L11.2884 59.9773C11.401 59.8643 11.4174 59.6873 11.3297 59.554C10.1538 57.7664 9.2633 55.7733 8.72342 53.6399C8.68568 53.4908 8.55261 53.3852 8.39922 53.3852H1.54544C1.24 53.3852 0.975031 53.1762 0.915067 52.8759C0.771006 52.1542 0.536743 50.7656 0.536743 49.3666C0.536743 47.515 0.761431 46.199 0.90603 45.5438C0.968698 45.2598 1.2226 45.0708 1.51257 45.0708L8.21398 45.0708C8.37263 45.0708 8.50875 44.958 8.54132 44.8023C9.01245 42.55 9.87101 40.4406 11.0439 38.5476C11.1261 38.4149 11.1077 38.2426 10.9976 38.1321L6.14061 33.2606C5.92463 33.044 5.88459 32.7083 6.05396 32.4533C6.46086 31.8409 7.27417 30.6928 8.26047 29.7036C9.56584 28.3943 10.6525 27.6231 11.2167 27.2624C11.4612 27.106 11.774 27.1524 11.979 27.3581L16.8478 32.2415C16.9583 32.3523 17.1307 32.3705 17.2631 32.2873C19.0326 31.1755 20.9933 30.3415 23.0843 29.8461C23.2357 29.8102 23.3438 29.6755 23.3438 29.5196V22.8841ZM27.5713 60.4702C35.5633 60.4702 39.7454 55.1738 39.7454 48.827C39.7454 40.8111 34.1253 37.1837 27.5713 37.1837C19.5793 37.1837 15.9714 42.7672 15.9714 48.827C15.9714 54.8867 19.5793 60.4702 27.5713 60.4702Z"
          />
    <path d="M54.8415 64.2966C54.8453 64.3152 54.8491 64.3343 54.8527 64.353L54.8532 64.2966H54.8415Z" fill="black"/>
    <path d="M41.1428 12.1754C44.5398 12.1754 47.0422 13.2894 48.5381 14.6131C49.9095 15.8267 50.8398 17.5319 50.8398 20.0542C50.8398 29.0796 59.6903 35.8118 68.5549 32.918C70.0218 32.4392 71.6001 32.1754 73.264 32.1754C80.6489 32.1754 88.4155 39.7498 88.4155 49.1451C88.4155 57.5131 81.632 64.2966 73.264 64.2966H54.8532L54.8527 64.353C54.9997 65.1107 55.0044 65.8987 54.8527 66.6737C54.7044 67.4311 54.4068 68.1762 53.9468 68.8686C53.46 69.6014 52.4163 71.0905 51.0598 72.4511C50.6429 72.8693 50.2401 73.247 49.8572 73.5868C48.7541 74.5657 47.8157 75.2296 47.1793 75.6366C46.5978 76.0084 45.9889 76.2649 45.3731 76.4178H73.264C88.3263 76.4178 100.537 64.2074 100.537 49.1451C100.537 34.0828 88.3263 20.0542 73.264 20.0542C70.307 20.0542 67.4598 20.5248 64.7934 21.3952C63.9058 21.685 62.961 20.988 62.961 20.0542C62.961 8.00435 53.1927 0.0541992 41.1428 0.0541992C30.1747 0.0541992 21.0969 8.14736 19.5554 18.6877C20.3801 17.8107 21.4787 17.1649 22.7777 16.9041C23.6395 16.731 25.4294 16.4178 27.3504 16.4178C29.6404 16.4178 31.3506 16.6973 32.344 16.9179C32.4802 16.9481 32.6139 16.9825 32.7449 17.0208C34.422 14.1241 37.5549 12.1754 41.1428 12.1754Z"
          />
</svg>