<?xml version="1.0" standalone="no"?>
<!DOCTYPE svg PUBLIC "-//W3C//DTD SVG 20010904//EN"
 "http://www.w3.org/TR/2001/REC-SVG-20010904/DTD/svg10.dtd">
<svg version="1.0" xmlns="http://www.w3.org/2000/svg"
 width="600.000000pt" height="600.000000pt" viewBox="0 0 600.000000 600.000000"
 preserveAspectRatio="xMidYMid meet">

<g transform="translate(0.000000,600.000000) scale(0.100000,-0.100000)"
fill="#000000" stroke="none">
<path d="M2706 5960 c-165 -26 -354 -105 -476 -198 -89 -67 -198 -184 -249
-268 l-43 -69 -125 4 c-252 7 -458 -51 -659 -185 -334 -222 -529 -636 -485
-1029 13 -114 45 -238 85 -328 l24 -56 -46 -6 c-168 -24 -316 -93 -432 -202
-168 -158 -238 -310 -247 -538 -5 -112 -2 -143 16 -214 72 -286 289 -503 571
-571 84 -20 107 -20 2365 -20 2467 0 2337 -2 2475 53 100 41 170 88 256 172
129 127 201 274 226 461 19 136 -13 307 -82 444 -36 73 -126 185 -193 239 -34
28 -97 69 -139 92 -43 22 -78 41 -78 43 0 2 13 33 30 69 241 532 15 1176 -505
1441 -354 180 -773 160 -1108 -51 -21 -13 -41 -22 -45 -19 -3 3 -16 36 -29 73
-108 310 -385 556 -723 642 -97 25 -291 35 -384 21z m353 -191 c244 -62 456
-238 566 -470 35 -74 75 -211 75 -256 0 -36 42 -73 84 -73 26 0 46 10 83 42
176 152 385 230 618 230 253 -1 462 -83 638 -251 205 -195 298 -408 298 -681
0 -186 -36 -321 -127 -481 -24 -42 -44 -88 -44 -103 0 -38 46 -81 95 -90 80
-15 186 -77 266 -156 122 -122 179 -255 181 -422 1 -144 -37 -258 -125 -374
-84 -110 -233 -201 -365 -223 -48 -8 -706 -11 -2337 -9 l-2270 3 -67 26 c-152
59 -270 162 -340 295 -177 336 1 746 372 859 32 10 108 19 182 22 106 5 131 9
148 25 31 29 35 63 11 105 -54 96 -121 244 -138 303 -14 51 -18 102 -18 235 0
197 14 264 89 413 184 367 556 563 969 512 77 -9 109 -10 125 -1 11 6 40 47
63 90 186 349 587 527 968 430z"/>
<path d="M1503 4845 c-208 -58 -346 -238 -345 -450 1 -404 470 -614 773 -346
134 118 186 311 131 488 -41 131 -148 244 -281 294 -73 28 -206 35 -278 14z
m245 -189 c104 -54 161 -146 162 -261 0 -256 -294 -387 -483 -215 -76 69 -101
130 -95 230 3 43 12 89 22 108 40 77 120 142 201 163 50 13 141 1 193 -25z"/>
<path d="M1572 2223 c-11 -10 -140 -174 -286 -364 -220 -286 -266 -352 -266
-379 0 -70 37 -90 166 -90 l84 0 0 -650 0 -651 25 -24 24 -25 306 0 306 0 24
25 25 24 0 651 0 650 84 0 c129 0 166 20 166 90 0 26 -48 94 -266 378 -147
191 -276 355 -286 365 -11 9 -35 17 -53 17 -18 0 -42 -8 -53 -17z m238 -439
l169 -219 -59 -5 c-44 -4 -65 -11 -82 -28 l-23 -23 -3 -654 -2 -655 -185 0
-184 0 -3 655 -3 654 -23 23 c-17 17 -38 24 -82 28 l-60 5 176 228 c106 138
180 225 185 220 5 -5 86 -108 179 -229z"/>
<path d="M2938 2213 c-37 -41 -523 -674 -536 -700 -18 -33 -14 -59 12 -90 22
-26 29 -27 125 -31 l100 -4 3 -648 3 -648 24 -26 24 -26 307 0 307 0 24 26 24
26 3 648 2 648 101 4 c97 4 102 5 126 33 19 22 24 36 20 60 -4 22 -87 138
-262 366 -142 184 -269 346 -283 362 -19 20 -35 27 -62 27 -27 0 -43 -7 -62
-27z m241 -420 c94 -122 171 -224 171 -227 0 -3 -24 -6 -54 -6 -38 0 -61 -6
-77 -19 l-24 -19 -3 -661 -2 -661 -190 0 -190 0 0 655 0 656 -25 24 c-20 21
-34 25 -80 25 -31 0 -55 4 -53 9 7 19 343 450 349 448 4 -1 84 -102 178 -224z"/>
<path d="M4328 2228 c-13 -11 -228 -287 -506 -651 -61 -80 -68 -119 -26 -158
23 -21 36 -24 125 -27 l99 -4 2 -655 3 -655 24 -19 c22 -18 43 -19 328 -19
l304 0 24 25 25 24 0 651 0 650 84 0 c108 0 144 13 162 57 13 29 13 38 1 61
-17 34 -522 691 -549 715 -24 20 -77 23 -100 5z m237 -448 l166 -215 -60 -5
c-38 -3 -66 -12 -80 -24 -21 -19 -21 -23 -23 -675 l-3 -656 -187 -3 -188 -2
-2 655 -3 654 -23 23 c-17 17 -38 24 -81 28 l-59 5 176 228 c142 184 178 225
188 215 7 -7 88 -110 179 -228z"/>
</g>
</svg>
