<svg id="qwilr-logo" data-name="Layer 1" xmlns="http://www.w3.org/2000/svg" viewBox="0 0 195 80">
  <g id="logotype">
    <g>
      <path d="M113.57,54.2a13.67,13.67,0,0,1-6.39,1.53c-8.22,0-14-6.63-14-15.7s5.8-15.7,14-15.7,14.06,6.59,14.06,15.7A16.41,16.41,0,0,1,117,51.47l2.53,3.12L116,57.27Zm-6.39-25.26c-5.35,0-8.82,4.66-8.82,11.09s3.47,11.1,8.82,11.1a9.44,9.44,0,0,0,3.46-.6l-2.52-3.12,3.57-2.62,2.42,3A13.74,13.74,0,0,0,116,40C116,33.6,112.53,28.94,107.18,28.94Z" style="fill: #9FA2B2"/>
      <path d="M145.51,48.85l4.26-15.6h4.8l-6.39,22h-5l-3.91-15.31L135.4,55.24h-5l-6.39-22h5l4.25,15.6,3.87-15.6h4.5Z" style="fill: #9FA2B2"/>
      <path d="M161,29.63a3,3,0,1,1,3.07-3A3.07,3.07,0,0,1,161,29.63Zm2.47,25.61h-4.95v-22h4.95Z" style="fill: #9FA2B2"/>
      <path d="M174.58,55.24h-5V23.05h5Z" style="fill: #9FA2B2"/>
      <path d="M193,38.25a5.39,5.39,0,0,0-2.92-.74A4.29,4.29,0,0,0,185.67,41V55.24h-4.95v-22h4.95v2.28a5.51,5.51,0,0,1,4.9-2.78,6.14,6.14,0,0,1,2.43.4Z" style="fill: #9FA2B2"/>
    </g>
  </g>
  <g id="logomark">
    <circle id="bg" cx="40" cy="40" r="40" style="fill: #fff"/>
    <path id="stroke" d="M40,1.9A38.1,38.1,0,1,1,1.9,40,38.14,38.14,0,0,1,40,1.9M40,0A40,40,0,1,0,80,40,40,40,0,0,0,40,0Z" style="fill: #81a2b2;opacity: 0.25"/>
    <g id="logo">
      <path d="M23.33,49.47l4.42,6.92a1.9,1.9,0,0,0,3.22,0l9.87-16.07L33.5,28.34,23.27,45.47A3.79,3.79,0,0,0,23.33,49.47Z" style="fill: #00a99d"/>
      <path d="M58.42,45.47,48.19,28.34l-7.35,12,9.88,16.07a1.9,1.9,0,0,0,3.22,0l4.42-6.92A3.82,3.82,0,0,0,58.42,45.47Z" style="fill: #ef445a"/>
      <path d="M45.38,23.63,42.46,19a1.9,1.9,0,0,0-3.23,0l-2.92,4.64L33.5,28.34l7.34,12,7.35-11.95Z" style="fill: #01445a"/>
    </g>
  </g>
</svg>
